<svg viewBox="0 0 2.2 2.2" height="400" width="400.0" style="background-color:grey" xmlns="http://www.w3.org/2000/svg" xmlns:xlink="http://www.w3.org/1999/xlink">
  <!--generated by splinepy https://github.com/tataratat/splinepy-->
  <g id="spline_list">
    <g id="spline0">
      <g id="spline_paths">
        <path d="M 1.1,2.1 C 1.0535262441371898,1.6062145694725052 1.6062145694725047,1.0535262441371893 2.1,1.1  C 2.1,0.7666666666666668 2.1,0.43333333333333335 2.1,0.10000000000000009  C 1.1124291389450103,0.0070524882743794315 0.007052488274378543,1.1124291389450096 0.10000000000000009,2.1  C 0.43333333333333335,2.1 0.7666666666666668,2.1 1.1,2.1" style="fill:#047f10;fill-opacity:1.0;stroke:none;stroke-linecap:round" />
      </g>
      <g id="knots">
        <path d="M 1.1,2.1 C 0.7666666666666668,2.1 0.43333333333333335,2.1 0.10000000000000009,2.1" style="fill:none;stroke:#0f00fb;stroke-opacity:1.0;stroke-width:0.02;stroke-linecap:round" />
        <path d="M 2.1,1.1 C 2.1,0.7666666666666668 2.1,0.43333333333333335 2.1,0.10000000000000009" style="fill:none;stroke:#0f00fb;stroke-opacity:1.0;stroke-width:0.02;stroke-linecap:round" />
        <path d="M 1.1,2.1 C 1.0535262441371898,1.6062145694725052 1.6062145694725047,1.0535262441371893 2.1,1.1" style="fill:none;stroke:#0f00fb;stroke-opacity:1.0;stroke-width:0.02;stroke-linecap:round" />
        <path d="M 0.10000000000000009,2.1 C 0.0070524882743794315,1.1124291389450103 1.1124291389450096,0.007052488274378543 2.1,0.10000000000000009" style="fill:none;stroke:#0f00fb;stroke-opacity:1.0;stroke-width:0.02;stroke-linecap:round" />
      </g>
      <g id="control_mesh">
        <g id="mesh" style="fill:none;stroke:#fe1e1f;stroke-opacity:1.0;stroke-width:0.028284271247461905;stroke-linecap:round">
          <polyline points="1.1,2.1 1.1,1.1 2.1,1.1" />
          <polyline points="0.6000000000000001,2.1 0.6000000000000001,0.6000000000000001 2.1,0.6000000000000001" />
          <polyline points="0.10000000000000009,2.1 0.10000000000000009,0.10000000000000009 2.1,0.10000000000000009" />
          <polyline points="1.1,2.1 0.6000000000000001,2.1 0.10000000000000009,2.1" />
          <polyline points="1.1,1.1 0.6000000000000001,0.6000000000000001 0.10000000000000009,0.10000000000000009" />
          <polyline points="2.1,1.1 2.1,0.6000000000000001 2.1,0.10000000000000009" />
        </g>
        <g id="control_points" style="fill:#fe1e1f;fill-opacity:1.0">
          <circle cx="1.1" cy="2.1" r="0.02" />
          <circle cx="1.1" cy="1.1" r="0.02" />
          <circle cx="2.1" cy="1.1" r="0.02" />
          <circle cx="0.6000000000000001" cy="2.1" r="0.02" />
          <circle cx="0.6000000000000001" cy="0.6000000000000001" r="0.02" />
          <circle cx="2.1" cy="0.6000000000000001" r="0.02" />
          <circle cx="0.10000000000000009" cy="2.1" r="0.02" />
          <circle cx="0.10000000000000009" cy="0.10000000000000009" r="0.02" />
          <circle cx="2.1" cy="0.10000000000000009" r="0.02" />
        </g>
        <g id="control_point_ids" font-size="0.1" text-anchor="middle" fill="#000000" stroke="none">
          <text x="1.1" y="2.1" dx="0.04" dy="0.04">0</text>
          <text x="1.1" y="1.1" dx="0.04" dy="0.04">1</text>
          <text x="2.1" y="1.1" dx="0.04" dy="0.04">2</text>
          <text x="0.6000000000000001" y="2.1" dx="0.04" dy="0.04">3</text>
          <text x="0.6000000000000001" y="0.6000000000000001" dx="0.04" dy="0.04">4</text>
          <text x="2.1" y="0.6000000000000001" dx="0.04" dy="0.04">5</text>
          <text x="0.10000000000000009" y="2.1" dx="0.04" dy="0.04">6</text>
          <text x="0.10000000000000009" y="0.10000000000000009" dx="0.04" dy="0.04">7</text>
          <text x="2.1" y="0.10000000000000009" dx="0.04" dy="0.04">8</text>
        </g>
      </g>
    </g>
  </g>
  <g id="quiver_list" />
</svg>
